ffmpeg started on 2025-07-16 at 17:02:19
Report written to "D:\Convert\FFMetrics\reports\psnr_report-6.txt"
Log level: 32
Command line:
ffmpeg -hide_banner -nostdin -i "G:\\\xc0\xed\xe8\xec\xe5\\Shiza\\\xcb\xe5\xe3\xe5\xed\xe4\xe0 \xee \xc3\xf0\xe0\xed\xea\xf0\xe5\xf1\xf2\xe5\\[SHIZA Project] Grancrest Senki TV [16] [nDrOiDze & Lizaveta]_HEVC.mkv" -i "G:\\\xc0\xed\xe8\xec\xe5\\Shiza\\\xcb\xe5\xe3\xe5\xed\xe4\xe0 \xee \xc3\xf0\xe0\xed\xea\xf0\xe5\xf1\xf2\xe5\\[SHIZA Project] Grancrest Senki TV [16] [nDrOiDze & Lizaveta].mkv" -lavfi "[0:v]settb=AVTB,setpts=PTS-STARTPTS,format=pix_fmts=yuv420p10,fps=24000/1001,scale=1280:720:flags=bicubic[main];[1:v]settb=AVTB,setpts=PTS-STARTPTS,format=pix_fmts=yuv420p,fps=24000/1001,scale=1280:720:flags=bicubic[ref];[main][ref]psnr=eof_action=endall:stats_file='D\\:/Convert/FFMetrics/logs/psnr_logfile-6.txt'" -f null -
Input #0, matroska,webm, from 'G:\Аниме\Shiza\Легенда о Гранкресте\[SHIZA Project] Grancrest Senki TV [16] [nDrOiDze & Lizaveta]_HEVC.mkv':
  Metadata:
    ENCODER         : Lavf61.7.100
  Duration: 00:23:41.10, start: -0.021000, bitrate: 651 kb/s
  Stream #0:0(jpn): Video: hevc (Main 10), yuv420p10le(tv, bt709, progressive), 1280x720 [SAR 1:1 DAR 16:9], 23.81 fps, 23.81 tbr, 1k tbn (default)
      Metadata:
        title           : [SHIZA Project] Grancrest Senki TV [WEBRip]
        ENCODER         : Lavc61.19.100 libx265
        BPS             : 451753
        DURATION        : 00:23:40.062000000
        NUMBER_OF_FRAMES: 34048
        NUMBER_OF_BYTES : 80189817
        _STATISTICS_WRITING_APP: mkvpropedit v66.0.0 ('Josie') 64-bit
        _STATISTICS_WRITING_DATE_UTC: 2025-07-16 10:27:30
        _STATISTICS_TAGS: BPS DURATION NUMBER_OF_FRAMES NUMBER_OF_BYTES
  Stream #0:1(rus): Audio: aac (LC), 48000 Hz, stereo, fltp (default)
      Metadata:
        title           : nDrOiDze & Lizaveta
        ENCODER         : Lavc61.19.100 aac
        BPS             : 196082
        DURATION        : 00:23:41.077000000
        NUMBER_OF_FRAMES: 66614
        NUMBER_OF_BYTES : 34830980
        _STATISTICS_WRITING_APP: mkvpropedit v66.0.0 ('Josie') 64-bit
        _STATISTICS_WRITING_DATE_UTC: 2025-07-16 10:27:30
        _STATISTICS_TAGS: BPS DURATION NUMBER_OF_FRAMES NUMBER_OF_BYTES
Input #1, matroska,webm, from 'G:\Аниме\Shiza\Легенда о Гранкресте\[SHIZA Project] Grancrest Senki TV [16] [nDrOiDze & Lizaveta].mkv':
  Metadata:
    encoder         : libebml v1.3.4 + libmatroska v1.4.5
    creation_time   : 2018-05-17T10:02:27.000000Z
  Duration: 00:23:41.08, start: 0.000000, bitrate: 1971 kb/s
  Stream #1:0(jpn): Video: h264 (High), yuv420p(progressive), 1280x720 [SAR 1:1 DAR 16:9], 23.81 fps, 23.81 tbr, 1k tbn (default)
      Metadata:
        title           : [SHIZA Project] Grancrest Senki TV [WEBRip]
        BPS             : 1772554
        BPS-eng         : 1772554
        DURATION        : 00:23:40.045000000
        DURATION-eng    : 00:23:40.045000000
        NUMBER_OF_FRAMES: 34048
        NUMBER_OF_FRAMES-eng: 34048
        NUMBER_OF_BYTES : 314638468
        NUMBER_OF_BYTES-eng: 314638468
        _STATISTICS_WRITING_APP: mkvmerge v10.0.0 ('To Drown In You') 64bit
        _STATISTICS_WRITING_APP-eng: mkvmerge v10.0.0 ('To Drown In You') 64bit
        _STATISTICS_WRITING_DATE_UTC: 2018-05-17 10:02:27
        _STATISTICS_WRITING_DATE_UTC-eng: 2018-05-17 10:02:27
        _STATISTICS_TAGS: BPS DURATION NUMBER_OF_FRAMES NUMBER_OF_BYTES
        _STATISTICS_TAGS-eng: BPS DURATION NUMBER_OF_FRAMES NUMBER_OF_BYTES
  Stream #1:1(rus): Audio: aac (LC), 48000 Hz, stereo, fltp (default)
      Metadata:
        title           : nDrOiDze & Lizaveta
        BPS             : 195862
        BPS-eng         : 195862
        DURATION        : 00:23:41.077000000
        DURATION-eng    : 00:23:41.077000000
        NUMBER_OF_FRAMES: 66613
        NUMBER_OF_FRAMES-eng: 66613
        NUMBER_OF_BYTES : 34791957
        NUMBER_OF_BYTES-eng: 34791957
        _STATISTICS_WRITING_APP: mkvmerge v10.0.0 ('To Drown In You') 64bit
        _STATISTICS_WRITING_APP-eng: mkvmerge v10.0.0 ('To Drown In You') 64bit
        _STATISTICS_WRITING_DATE_UTC: 2018-05-17 10:02:27
        _STATISTICS_WRITING_DATE_UTC-eng: 2018-05-17 10:02:27
        _STATISTICS_TAGS: BPS DURATION NUMBER_OF_FRAMES NUMBER_OF_BYTES
        _STATISTICS_TAGS-eng: BPS DURATION NUMBER_OF_FRAMES NUMBER_OF_BYTES
  Stream #1:2: Attachment: ttf
      Metadata:
        filename        : OpenSans-Semibold.ttf
        mimetype        : application/x-truetype-font
Stream mapping:
  Stream #0:0 (hevc) -> settb:default
  Stream #1:0 (h264) -> settb:default
  psnr:default -> Stream #0:0 (wrapped_avframe)
  Stream #0:1 -> #0:1 (aac (native) -> pcm_s16le (native))
[swscaler @ 000001f184f8d380] No accelerated colorspace conversion found from yuv420p to bgr48le.
[swscaler @ 000001f18502ba00] No accelerated colorspace conversion found from yuv420p to bgr48le.
[swscaler @ 000001f18519e580] No accelerated colorspace conversion found from yuv420p to bgr48le.
[swscaler @ 000001f185294fc0] No accelerated colorspace conversion found from yuv420p to bgr48le.
[swscaler @ 000001f18549b140] No accelerated colorspace conversion found from yuv420p to bgr48le.
[swscaler @ 000001f185570b80] No accelerated colorspace conversion found from yuv420p to bgr48le.
[swscaler @ 000001f1856887c0] No accelerated colorspace conversion found from yuv420p to bgr48le.
[swscaler @ 000001f1856b1d80] No accelerated colorspace conversion found from yuv420p to bgr48le.
[swscaler @ 000001f1857108c0] No accelerated colorspace conversion found from yuv420p to bgr48le.
[swscaler @ 000001f185799480] No accelerated colorspace conversion found from yuv420p to bgr48le.
[swscaler @ 000001f185803040] No accelerated colorspace conversion found from yuv420p to bgr48le.
[swscaler @ 000001f18586b040] No accelerated colorspace conversion found from yuv420p to bgr48le.
[swscaler @ 000001f1858c8040] No accelerated colorspace conversion found from yuv420p to bgr48le.
[swscaler @ 000001f18594e040] No accelerated colorspace conversion found from yuv420p to bgr48le.
[swscaler @ 000001f1859a9040] No accelerated colorspace conversion found from yuv420p to bgr48le.
[swscaler @ 000001f185a14040] No accelerated colorspace conversion found from yuv420p to bgr48le.
Output #0, null, to 'pipe:':
  Metadata:
    encoder         : Lavf61.7.100
  Stream #0:0: Video: wrapped_avframe, yuv420p10le(tv, bt709, progressive), 1280x720 [SAR 1:1 DAR 16:9], q=2-31, 200 kb/s, 23.98 fps, 23.98 tbn
      Metadata:
        encoder         : Lavc61.19.100 wrapped_avframe
  Stream #0:1(rus): Audio: pcm_s16le, 48000 Hz, stereo, s16, 1536 kb/s (default)
      Metadata:
        title           : nDrOiDze & Lizaveta
        _STATISTICS_TAGS: BPS DURATION NUMBER_OF_FRAMES NUMBER_OF_BYTES
        BPS             : 196082
        DURATION        : 00:23:41.077000000
        NUMBER_OF_FRAMES: 66614
        NUMBER_OF_BYTES : 34830980
        _STATISTICS_WRITING_APP: mkvpropedit v66.0.0 ('Josie') 64-bit
        _STATISTICS_WRITING_DATE_UTC: 2025-07-16 10:27:30
        encoder         : Lavc61.19.100 pcm_s16le
frame=   81 fps=0.0 q=-0.0 size=N/A time=00:00:03.37 bitrate=N/A speed= 6.5x    frame=  176 fps=169 q=-0.0 size=N/A time=00:00:07.34 bitrate=N/A speed=7.04x    frame=  257 fps=166 q=-0.0 size=N/A time=00:00:10.71 bitrate=N/A speed=6.92x    frame=  364 fps=176 q=-0.0 size=N/A time=00:00:15.18 bitrate=N/A speed=7.34x    frame=  457 fps=177 q=-0.0 size=N/A time=00:00:19.06 bitrate=N/A speed=7.36x    frame=  541 fps=175 q=-0.0 size=N/A time=00:00:22.56 bitrate=N/A speed=7.28x    frame=  645 fps=178 q=-0.0 size=N/A time=00:00:26.90 bitrate=N/A speed=7.43x    frame=  735 fps=178 q=-0.0 size=N/A time=00:00:30.65 bitrate=N/A speed=7.43x    frame=  829 fps=178 q=-0.0 size=N/A time=00:00:34.57 bitrate=N/A speed=7.44x    frame=  925 fps=179 q=-0.0 size=N/A time=00:00:38.58 bitrate=N/A speed=7.48x    frame= 1021 fps=180 q=-0.0 size=N/A time=00:00:42.58 bitrate=N/A speed= 7.5x    frame= 1112 fps=180 q=-0.0 size=N/A time=00:00:46.37 bitrate=N/A speed=7.49x    frame= 1208 fps=180 q=-0.0 size=N/A time=00:00:50.38 bitrate=N/A speed= 7.5x    frame= 1299 fps=180 q=-0.0 size=N/A time=00:00:54.17 bitrate=N/A speed= 7.5x    frame= 1395 fps=180 q=-0.0 size=N/A time=00:00:58.18 bitrate=N/A speed=7.52x    frame= 1484 fps=180 q=-0.0 size=N/A time=00:01:01.89 bitrate=N/A speed=7.49x    frame= 1585 fps=181 q=-0.0 size=N/A time=00:01:06.10 bitrate=N/A speed=7.54x    frame= 1673 fps=180 q=-0.0 size=N/A time=00:01:09.77 bitrate=N/A speed=7.52x    frame= 1773 fps=181 q=-0.0 size=N/A time=00:01:13.94 bitrate=N/A speed=7.54x    frame= 1869 fps=181 q=-0.0 size=N/A time=00:01:17.95 bitrate=N/A speed=7.56x    frame= 1965 fps=181 q=-0.0 size=N/A time=00:01:21.95 bitrate=N/A speed=7.57x    frame= 2056 fps=181 q=-0.0 size=N/A time=00:01:25.75 bitrate=N/A speed=7.55x    frame= 2150 fps=181 q=-0.0 size=N/A time=00:01:29.67 bitrate=N/A speed=7.56x    frame= 2247 fps=181 q=-0.0 size=N/A time=00:01:33.71 bitrate=N/A speed=7.57x    frame= 2341 fps=182 q=-0.0 size=N/A time=00:01:37.63 bitrate=N/A speed=7.57x    frame= 2441 fps=182 q=-0.0 size=N/A time=00:01:41.81 bitrate=N/A speed=7.59x    frame= 2536 fps=182 q=-0.0 size=N/A time=00:01:45.77 bitrate=N/A speed=7.59x    frame= 2630 fps=182 q=-0.0 size=N/A time=00:01:49.69 bitrate=N/A speed= 7.6x    frame= 2723 fps=182 q=-0.0 size=N/A time=00:01:53.57 bitrate=N/A speed=7.59x    frame= 2816 fps=182 q=-0.0 size=N/A time=00:01:57.45 bitrate=N/A speed=7.59x    frame= 2912 fps=182 q=-0.0 size=N/A time=00:02:01.45 bitrate=N/A speed=7.59x    frame= 3009 fps=182 q=-0.0 size=N/A time=00:02:05.50 bitrate=N/A speed= 7.6x    frame= 3101 fps=182 q=-0.0 size=N/A time=00:02:09.33 bitrate=N/A speed= 7.6x    frame= 3186 fps=182 q=-0.0 size=N/A time=00:02:12.88 bitrate=N/A speed=7.58x    frame= 3284 fps=182 q=-0.0 size=N/A time=00:02:16.97 bitrate=N/A speed=7.59x    frame= 3366 fps=181 q=-0.0 size=N/A time=00:02:20.39 bitrate=N/A speed=7.56x    frame= 3456 fps=181 q=-0.0 size=N/A time=00:02:24.14 bitrate=N/A speed=7.55x    frame= 3536 fps=180 q=-0.0 size=N/A time=00:02:27.48 bitrate=N/A speed=7.53x    frame= 3613 fps=180 q=-0.0 size=N/A time=00:02:30.69 bitrate=N/A speed=7.49x    frame= 3701 fps=179 q=-0.0 size=N/A time=00:02:34.36 bitrate=N/A speed=7.48x    frame= 3785 fps=179 q=-0.0 size=N/A time=00:02:37.86 bitrate=N/A speed=7.47x    frame= 3875 fps=179 q=-0.0 size=N/A time=00:02:41.61 bitrate=N/A speed=7.46x    frame= 3972 fps=179 q=-0.0 size=N/A time=00:02:45.66 bitrate=N/A speed=7.47x    frame= 4067 fps=179 q=-0.0 size=N/A time=00:02:49.62 bitrate=N/A speed=7.47x    frame= 4148 fps=179 q=-0.0 size=N/A time=00:02:53.00 bitrate=N/A speed=7.46x    frame= 4251 fps=179 q=-0.0 size=N/A time=00:02:57.30 bitrate=N/A speed=7.47x    frame= 4344 fps=179 q=-0.0 size=N/A time=00:03:01.18 bitrate=N/A speed=7.48x    frame= 4437 fps=179 q=-0.0 size=N/A time=00:03:05.05 bitrate=N/A speed=7.48x    frame= 4534 fps=179 q=-0.0 size=N/A time=00:03:09.10 bitrate=N/A speed=7.48x    frame= 4630 fps=180 q=-0.0 size=N/A time=00:03:13.10 bitrate=N/A speed=7.49x    frame= 4708 fps=179 q=-0.0 size=N/A time=00:03:16.36 bitrate=N/A speed=7.46x    frame= 4816 fps=180 q=-0.0 size=N/A time=00:03:20.86 bitrate=N/A speed=7.49x    frame= 4912 fps=180 q=-0.0 size=N/A time=00:03:24.87 bitrate=N/A speed=7.49x    frame= 5017 fps=180 q=-0.0 size=N/A time=00:03:29.25 bitrate=N/A speed=7.51x    frame= 5111 fps=180 q=-0.0 size=N/A time=00:03:33.17 bitrate=N/A speed=7.51x    frame= 5212 fps=181 q=-0.0 size=N/A time=00:03:37.38 bitrate=N/A speed=7.53x    frame= 5311 fps=181 q=-0.0 size=N/A time=00:03:41.51 bitrate=N/A speed=7.54x    frame= 5410 fps=181 q=-0.0 size=N/A time=00:03:45.64 bitrate=N/A speed=7.54x    frame= 5509 fps=181 q=-0.0 size=N/A time=00:03:49.77 bitrate=N/A speed=7.55x    frame= 5607 fps=181 q=-0.0 size=N/A time=00:03:53.85 bitrate=N/A speed=7.56x    frame= 5706 fps=181 q=-0.0 size=N/A time=00:03:57.98 bitrate=N/A speed=7.56x    frame= 5801 fps=181 q=-0.0 size=N/A time=00:04:01.95 bitrate=N/A speed=7.56x    frame= 5908 fps=182 q=-0.0 size=N/A time=00:04:06.41 bitrate=N/A speed=7.58x    frame= 5997 fps=182 q=-0.0 size=N/A time=00:04:10.12 bitrate=N/A speed=7.57x    frame= 6107 fps=182 q=-0.0 size=N/A time=00:04:14.71 bitrate=N/A speed=7.59x    frame= 6201 fps=182 q=-0.0 size=N/A time=00:04:18.63 bitrate=N/A speed= 7.6x    frame= 6303 fps=182 q=-0.0 size=N/A time=00:04:22.88 bitrate=N/A speed= 7.6x    frame= 6400 fps=182 q=-0.0 size=N/A time=00:04:26.93 bitrate=N/A speed=7.61x    frame= 6499 fps=183 q=-0.0 size=N/A time=00:04:31.06 bitrate=N/A speed=7.61x    frame= 6583 fps=182 q=-0.0 size=N/A time=00:04:34.56 bitrate=N/A speed= 7.6x    frame= 6680 fps=182 q=-0.0 size=N/A time=00:04:38.61 bitrate=N/A speed=7.61x    frame= 6784 fps=183 q=-0.0 size=N/A time=00:04:42.94 bitrate=N/A speed=7.62x    frame= 6883 fps=183 q=-0.0 size=N/A time=00:04:47.07 bitrate=N/A speed=7.62x    frame= 6981 fps=183 q=-0.0 size=N/A time=00:04:51.16 bitrate=N/A speed=7.63x    frame= 7086 fps=183 q=-0.0 size=N/A time=00:04:55.54 bitrate=N/A speed=7.64x    frame= 7191 fps=183 q=-0.0 size=N/A time=00:04:59.92 bitrate=N/A speed=7.65x    frame= 7283 fps=183 q=-0.0 size=N/A time=00:05:03.76 bitrate=N/A speed=7.65x    frame= 7387 fps=184 q=-0.0 size=N/A time=00:05:08.09 bitrate=N/A speed=7.66x    frame= 7488 fps=184 q=-0.0 size=N/A time=00:05:12.31 bitrate=N/A speed=7.66x    frame= 7586 fps=184 q=-0.0 size=N/A time=00:05:16.44 bitrate=N/A speed=7.67x    frame= 7673 fps=184 q=-0.0 size=N/A time=00:05:20.02 bitrate=N/A speed=7.66x    frame= 7771 fps=184 q=-0.0 size=N/A time=00:05:24.11 bitrate=N/A speed=7.66x    frame= 7865 fps=184 q=-0.0 size=N/A time=00:05:28.03 bitrate=N/A speed=7.66x    frame= 7964 fps=184 q=-0.0 size=N/A time=00:05:32.16 bitrate=N/A speed=7.67x    frame= 8054 fps=184 q=-0.0 size=N/A time=00:05:35.91 bitrate=N/A speed=7.66x    frame= 8154 fps=184 q=-0.0 size=N/A time=00:05:40.08 bitrate=N/A speed=7.67x    frame= 8255 fps=184 q=-0.0 size=N/A time=00:05:44.30 bitrate=N/A speed=7.67x    frame= 8356 fps=184 q=-0.0 size=N/A time=00:05:48.51 bitrate=N/A speed=7.68x    frame= 8447 fps=184 q=-0.0 size=N/A time=00:05:52.31 bitrate=N/A speed=7.67x    frame= 8546 fps=184 q=-0.0 size=N/A time=00:05:56.43 bitrate=N/A speed=7.68x    frame= 8653 fps=184 q=-0.0 size=N/A time=00:06:00.90 bitrate=N/A speed=7.69x    frame= 8751 fps=184 q=-0.0 size=N/A time=00:06:04.98 bitrate=N/A speed=7.69x    frame= 8851 fps=184 q=-0.0 size=N/A time=00:06:09.16 bitrate=N/A speed=7.69x    frame= 8942 fps=184 q=-0.0 size=N/A time=00:06:12.95 bitrate=N/A speed=7.69x    frame= 9047 fps=185 q=-0.0 size=N/A time=00:06:17.33 bitrate=N/A speed= 7.7x    frame= 9142 fps=185 q=-0.0 size=N/A time=00:06:21.29 bitrate=N/A speed= 7.7x    frame= 9239 fps=185 q=-0.0 size=N/A time=00:06:25.34 bitrate=N/A speed= 7.7x    frame= 9334 fps=185 q=-0.0 size=N/A time=00:06:29.30 bitrate=N/A speed= 7.7x    frame= 9427 fps=185 q=-0.0 size=N/A time=00:06:33.18 bitrate=N/A speed= 7.7x    frame= 9526 fps=185 q=-0.0 size=N/A time=00:06:37.31 bitrate=N/A speed= 7.7x    frame= 9626 fps=185 q=-0.0 size=N/A time=00:06:41.48 bitrate=N/A speed=7.71x    frame= 9729 fps=185 q=-0.0 size=N/A time=00:06:45.78 bitrate=N/A speed=7.71x    frame= 9823 fps=185 q=-0.0 size=N/A time=00:06:49.70 bitrate=N/A speed=7.71x    frame= 9926 fps=185 q=-0.0 size=N/A time=00:06:53.99 bitrate=N/A speed=7.72x    frame=10013 fps=185 q=-0.0 size=N/A time=00:06:57.62 bitrate=N/A speed=7.71x    frame=10126 fps=185 q=-0.0 size=N/A time=00:07:02.33 bitrate=N/A speed=7.72x    frame=10225 fps=185 q=-0.0 size=N/A time=00:07:06.46 bitrate=N/A speed=7.73x    frame=10324 fps=185 q=-0.0 size=N/A time=00:07:10.59 bitrate=N/A speed=7.73x    frame=10426 fps=185 q=-0.0 size=N/A time=00:07:14.85 bitrate=N/A speed=7.73x    frame=10524 fps=185 q=-0.0 size=N/A time=00:07:18.93 bitrate=N/A speed=7.74x    frame=10621 fps=185 q=-0.0 size=N/A time=00:07:22.98 bitrate=N/A speed=7.74x    frame=10711 fps=185 q=-0.0 size=N/A time=00:07:26.73 bitrate=N/A speed=7.73x    frame=10817 fps=186 q=-0.0 size=N/A time=00:07:31.15 bitrate=N/A speed=7.74x    frame=10916 fps=186 q=-0.0 size=N/A time=00:07:35.28 bitrate=N/A speed=7.74x    frame=11015 fps=186 q=-0.0 size=N/A time=00:07:39.41 bitrate=N/A speed=7.74x    frame=11110 fps=186 q=-0.0 size=N/A time=00:07:43.37 bitrate=N/A speed=7.74x    frame=11210 fps=186 q=-0.0 size=N/A time=00:07:47.55 bitrate=N/A speed=7.75x    frame=11307 fps=186 q=-0.0 size=N/A time=00:07:51.59 bitrate=N/A speed=7.75x    frame=11410 fps=186 q=-0.0 size=N/A time=00:07:55.89 bitrate=N/A speed=7.75x    frame=11509 fps=186 q=-0.0 size=N/A time=00:08:00.02 bitrate=N/A speed=7.76x    frame=11610 fps=186 q=-0.0 size=N/A time=00:08:04.23 bitrate=N/A speed=7.76x    frame=11709 fps=186 q=-0.0 size=N/A time=00:08:08.36 bitrate=N/A speed=7.76x    frame=11809 fps=186 q=-0.0 size=N/A time=00:08:12.53 bitrate=N/A speed=7.76x    frame=11909 fps=186 q=-0.0 size=N/A time=00:08:16.70 bitrate=N/A speed=7.77x    frame=12000 fps=186 q=-0.0 size=N/A time=00:08:20.50 bitrate=N/A speed=7.76x    frame=12099 fps=186 q=-0.0 size=N/A time=00:08:24.62 bitrate=N/A speed=7.76x    frame=12198 fps=186 q=-0.0 size=N/A time=00:08:28.75 bitrate=N/A speed=7.76x    frame=12295 fps=186 q=-0.0 size=N/A time=00:08:32.80 bitrate=N/A speed=7.76x    frame=12393 fps=186 q=-0.0 size=N/A time=00:08:36.89 bitrate=N/A speed=7.76x    frame=12493 fps=186 q=-0.0 size=N/A time=00:08:41.06 bitrate=N/A speed=7.77x    frame=12588 fps=186 q=-0.0 size=N/A time=00:08:45.02 bitrate=N/A speed=7.77x    frame=12678 fps=186 q=-0.0 size=N/A time=00:08:48.77 bitrate=N/A speed=7.76x    frame=12785 fps=186 q=-0.0 size=N/A time=00:08:53.24 bitrate=N/A speed=7.77x    frame=12885 fps=186 q=-0.0 size=N/A time=00:08:57.41 bitrate=N/A speed=7.77x    frame=12982 fps=186 q=-0.0 size=N/A time=00:09:01.45 bitrate=N/A speed=7.77x    frame=13077 fps=186 q=-0.0 size=N/A time=00:09:05.41 bitrate=N/A speed=7.77x    frame=13176 fps=186 q=-0.0 size=N/A time=00:09:09.54 bitrate=N/A speed=7.77x    frame=13275 fps=186 q=-0.0 size=N/A time=00:09:13.67 bitrate=N/A speed=7.78x    frame=13373 fps=186 q=-0.0 size=N/A time=00:09:17.76 bitrate=N/A speed=7.78x    frame=13468 fps=186 q=-0.0 size=N/A time=00:09:21.72 bitrate=N/A speed=7.78x    frame=13563 fps=186 q=-0.0 size=N/A time=00:09:25.69 bitrate=N/A speed=7.78x    frame=13663 fps=186 q=-0.0 size=N/A time=00:09:29.86 bitrate=N/A speed=7.78x    frame=13768 fps=187 q=-0.0 size=N/A time=00:09:34.24 bitrate=N/A speed=7.78x    frame=13865 fps=187 q=-0.0 size=N/A time=00:09:38.28 bitrate=N/A speed=7.78x    frame=13967 fps=187 q=-0.0 size=N/A time=00:09:42.54 bitrate=N/A speed=7.79x    frame=14064 fps=187 q=-0.0 size=N/A time=00:09:46.58 bitrate=N/A speed=7.79x    frame=14158 fps=187 q=-0.0 size=N/A time=00:09:50.50 bitrate=N/A speed=7.78x    frame=14249 fps=187 q=-0.0 size=N/A time=00:09:54.30 bitrate=N/A speed=7.78x    frame=14352 fps=187 q=-0.0 size=N/A time=00:09:58.59 bitrate=N/A speed=7.79x    frame=14447 fps=187 q=-0.0 size=N/A time=00:10:02.56 bitrate=N/A speed=7.79x    frame=14557 fps=187 q=-0.0 size=N/A time=00:10:07.14 bitrate=N/A speed=7.79x    frame=14652 fps=187 q=-0.0 size=N/A time=00:10:11.11 bitrate=N/A speed=7.79x    frame=14754 fps=187 q=-0.0 size=N/A time=00:10:15.36 bitrate=N/A speed=7.79x    frame=14853 fps=187 q=-0.0 size=N/A time=00:10:19.49 bitrate=N/A speed= 7.8x    frame=14954 fps=187 q=-0.0 size=N/A time=00:10:23.70 bitrate=N/A speed= 7.8x    frame=15047 fps=187 q=-0.0 size=N/A time=00:10:27.58 bitrate=N/A speed= 7.8x    frame=15152 fps=187 q=-0.0 size=N/A time=00:10:31.96 bitrate=N/A speed= 7.8x    frame=15259 fps=187 q=-0.0 size=N/A time=00:10:36.42 bitrate=N/A speed= 7.8x    frame=15356 fps=187 q=-0.0 size=N/A time=00:10:40.47 bitrate=N/A speed=7.81x    frame=15455 fps=187 q=-0.0 size=N/A time=00:10:44.60 bitrate=N/A speed=7.81x    frame=15549 fps=187 q=-0.0 size=N/A time=00:10:48.52 bitrate=N/A speed=7.81x    frame=15653 fps=187 q=-0.0 size=N/A time=00:10:52.86 bitrate=N/A speed=7.81x    frame=15741 fps=187 q=-0.0 size=N/A time=00:10:56.53 bitrate=N/A speed=7.81x    frame=15839 fps=187 q=-0.0 size=N/A time=00:11:00.61 bitrate=N/A speed=7.81x    frame=15938 fps=187 q=-0.0 size=N/A time=00:11:04.74 bitrate=N/A speed=7.81x    frame=16028 fps=187 q=-0.0 size=N/A time=00:11:08.50 bitrate=N/A speed= 7.8x    frame=16138 fps=187 q=-0.0 size=N/A time=00:11:13.08 bitrate=N/A speed=7.81x    frame=16238 fps=187 q=-0.0 size=N/A time=00:11:17.25 bitrate=N/A speed=7.81x    frame=16333 fps=187 q=-0.0 size=N/A time=00:11:21.22 bitrate=N/A speed=7.81x    frame=16423 fps=187 q=-0.0 size=N/A time=00:11:24.97 bitrate=N/A speed=7.81x    frame=16525 fps=187 q=-0.0 size=N/A time=00:11:29.23 bitrate=N/A speed=7.81x    frame=16615 fps=187 q=-0.0 size=N/A time=00:11:32.98 bitrate=N/A speed=7.81x    frame=16721 fps=187 q=-0.0 size=N/A time=00:11:37.40 bitrate=N/A speed=7.81x    frame=16819 fps=187 q=-0.0 size=N/A time=00:11:41.49 bitrate=N/A speed=7.81x    frame=16908 fps=187 q=-0.0 size=N/A time=00:11:45.20 bitrate=N/A speed=7.81x    frame=17017 fps=187 q=-0.0 size=N/A time=00:11:49.75 bitrate=N/A speed=7.81x    frame=17116 fps=187 q=-0.0 size=N/A time=00:11:53.87 bitrate=N/A speed=7.82x    frame=17215 fps=187 q=-0.0 size=N/A time=00:11:58.00 bitrate=N/A speed=7.82x    frame=17316 fps=187 q=-0.0 size=N/A time=00:12:02.22 bitrate=N/A speed=7.82x    frame=17418 fps=188 q=-0.0 size=N/A time=00:12:06.47 bitrate=N/A speed=7.82x    frame=17518 fps=188 q=-0.0 size=N/A time=00:12:10.64 bitrate=N/A speed=7.82x    frame=17616 fps=188 q=-0.0 size=N/A time=00:12:14.73 bitrate=N/A speed=7.82x    frame=17715 fps=188 q=-0.0 size=N/A time=00:12:18.86 bitrate=N/A speed=7.82x    frame=17813 fps=188 q=-0.0 size=N/A time=00:12:22.95 bitrate=N/A speed=7.83x    frame=17911 fps=188 q=-0.0 size=N/A time=00:12:27.03 bitrate=N/A speed=7.83x    frame=18003 fps=188 q=-0.0 size=N/A time=00:12:30.87 bitrate=N/A speed=7.82x    frame=18099 fps=188 q=-0.0 size=N/A time=00:12:34.87 bitrate=N/A speed=7.82x    frame=18199 fps=188 q=-0.0 size=N/A time=00:12:39.04 bitrate=N/A speed=7.82x    frame=18301 fps=188 q=-0.0 size=N/A time=00:12:43.30 bitrate=N/A speed=7.83x    frame=18399 fps=188 q=-0.0 size=N/A time=00:12:47.39 bitrate=N/A speed=7.83x    frame=18490 fps=188 q=-0.0 size=N/A time=00:12:51.18 bitrate=N/A speed=7.82x    frame=18593 fps=188 q=-0.0 size=N/A time=00:12:55.48 bitrate=N/A speed=7.83x    frame=18692 fps=188 q=-0.0 size=N/A time=00:12:59.61 bitrate=N/A speed=7.83x    frame=18788 fps=188 q=-0.0 size=N/A time=00:13:03.61 bitrate=N/A speed=7.83x    frame=18877 fps=188 q=-0.0 size=N/A time=00:13:07.32 bitrate=N/A speed=7.82x    frame=18978 fps=188 q=-0.0 size=N/A time=00:13:11.54 bitrate=N/A speed=7.83x    frame=19082 fps=188 q=-0.0 size=N/A time=00:13:15.87 bitrate=N/A speed=7.83x    frame=19180 fps=188 q=-0.0 size=N/A time=00:13:19.96 bitrate=N/A speed=7.83x    frame=19268 fps=188 q=-0.0 size=N/A time=00:13:23.63 bitrate=N/A speed=7.83x    frame=19367 fps=188 q=-0.0 size=N/A time=00:13:27.76 bitrate=N/A speed=7.83x    frame=19470 fps=188 q=-0.0 size=N/A time=00:13:32.06 bitrate=N/A speed=7.83x    frame=19557 fps=188 q=-0.0 size=N/A time=00:13:35.68 bitrate=N/A speed=7.83x    frame=19667 fps=188 q=-0.0 size=N/A time=00:13:40.27 bitrate=N/A speed=7.83x    frame=19761 fps=188 q=-0.0 size=N/A time=00:13:44.19 bitrate=N/A speed=7.83x    frame=19851 fps=188 q=-0.0 size=N/A time=00:13:47.95 bitrate=N/A speed=7.83x    frame=19943 fps=188 q=-0.0 size=N/A time=00:13:51.78 bitrate=N/A speed=7.83x    frame=20036 fps=188 q=-0.0 size=N/A time=00:13:55.66 bitrate=N/A speed=7.82x    frame=20124 fps=188 q=-0.0 size=N/A time=00:13:59.33 bitrate=N/A speed=7.82x    frame=20228 fps=188 q=-0.0 size=N/A time=00:14:03.67 bitrate=N/A speed=7.82x    frame=20323 fps=188 q=-0.0 size=N/A time=00:14:07.63 bitrate=N/A speed=7.82x    frame=20428 fps=188 q=-0.0 size=N/A time=00:14:12.01 bitrate=N/A speed=7.83x    frame=20521 fps=188 q=-0.0 size=N/A time=00:14:15.89 bitrate=N/A speed=7.83x    frame=20608 fps=188 q=-0.0 size=N/A time=00:14:19.52 bitrate=N/A speed=7.82x    frame=20719 fps=188 q=-0.0 size=N/A time=00:14:24.15 bitrate=N/A speed=7.83x    frame=20816 fps=188 q=-0.0 size=N/A time=00:14:28.20 bitrate=N/A speed=7.83x    frame=20914 fps=188 q=-0.0 size=N/A time=00:14:32.28 bitrate=N/A speed=7.83x    frame=21006 fps=188 q=-0.0 size=N/A time=00:14:36.12 bitrate=N/A speed=7.83x    frame=21108 fps=188 q=-0.0 size=N/A time=00:14:40.37 bitrate=N/A speed=7.83x    frame=21201 fps=188 q=-0.0 size=N/A time=00:14:44.25 bitrate=N/A speed=7.83x    frame=21290 fps=188 q=-0.0 size=N/A time=00:14:47.97 bitrate=N/A speed=7.82x    frame=21389 fps=188 q=-0.0 size=N/A time=00:14:52.09 bitrate=N/A speed=7.82x    frame=21486 fps=188 q=-0.0 size=N/A time=00:14:56.14 bitrate=N/A speed=7.82x    frame=21582 fps=188 q=-0.0 size=N/A time=00:15:00.14 bitrate=N/A speed=7.82x    frame=21686 fps=188 q=-0.0 size=N/A time=00:15:04.48 bitrate=N/A speed=7.83x    frame=21776 fps=188 q=-0.0 size=N/A time=00:15:08.24 bitrate=N/A speed=7.82x    frame=21881 fps=188 q=-0.0 size=N/A time=00:15:12.62 bitrate=N/A speed=7.83x    frame=21978 fps=188 q=-0.0 size=N/A time=00:15:16.66 bitrate=N/A speed=7.83x    frame=22078 fps=188 q=-0.0 size=N/A time=00:15:20.83 bitrate=N/A speed=7.83x    frame=22176 fps=188 q=-0.0 size=N/A time=00:15:24.92 bitrate=N/A speed=7.83x    frame=22268 fps=188 q=-0.0 size=N/A time=00:15:28.76 bitrate=N/A speed=7.83x    frame=22364 fps=188 q=-0.0 size=N/A time=00:15:32.76 bitrate=N/A speed=7.83x    frame=22469 fps=188 q=-0.0 size=N/A time=00:15:37.14 bitrate=N/A speed=7.83x    frame=22568 fps=188 q=-0.0 size=N/A time=00:15:41.27 bitrate=N/A speed=7.83x    frame=22664 fps=188 q=-0.0 size=N/A time=00:15:45.27 bitrate=N/A speed=7.83x    frame=22758 fps=188 q=-0.0 size=N/A time=00:15:49.19 bitrate=N/A speed=7.83x    frame=22858 fps=188 q=-0.0 size=N/A time=00:15:53.36 bitrate=N/A speed=7.83x    frame=22947 fps=188 q=-0.0 size=N/A time=00:15:57.08 bitrate=N/A speed=7.83x    frame=23054 fps=188 q=-0.0 size=N/A time=00:16:01.54 bitrate=N/A speed=7.83x    frame=23148 fps=188 q=-0.0 size=N/A time=00:16:05.46 bitrate=N/A speed=7.83x    frame=23255 fps=188 q=-0.0 size=N/A time=00:16:09.92 bitrate=N/A speed=7.83x    frame=23354 fps=188 q=-0.0 size=N/A time=00:16:14.05 bitrate=N/A speed=7.83x    frame=23444 fps=188 q=-0.0 size=N/A time=00:16:17.81 bitrate=N/A speed=7.83x    frame=23547 fps=188 q=-0.0 size=N/A time=00:16:22.10 bitrate=N/A speed=7.83x    frame=23646 fps=188 q=-0.0 size=N/A time=00:16:26.23 bitrate=N/A speed=7.83x    frame=23742 fps=188 q=-0.0 size=N/A time=00:16:30.23 bitrate=N/A speed=7.83x    frame=23835 fps=188 q=-0.0 size=N/A time=00:16:34.11 bitrate=N/A speed=7.83x    frame=23936 fps=188 q=-0.0 size=N/A time=00:16:38.33 bitrate=N/A speed=7.83x    frame=24035 fps=188 q=-0.0 size=N/A time=00:16:42.45 bitrate=N/A speed=7.84x    frame=24132 fps=188 q=-0.0 size=N/A time=00:16:46.50 bitrate=N/A speed=7.84x    frame=24233 fps=188 q=-0.0 size=N/A time=00:16:50.71 bitrate=N/A speed=7.84x    frame=24324 fps=188 q=-0.0 size=N/A time=00:16:54.51 bitrate=N/A speed=7.84x    frame=24426 fps=188 q=-0.0 size=N/A time=00:16:58.76 bitrate=N/A speed=7.84x    frame=24531 fps=188 q=-0.0 size=N/A time=00:17:03.14 bitrate=N/A speed=7.84x    frame=24625 fps=188 q=-0.0 size=N/A time=00:17:07.06 bitrate=N/A speed=7.84x    frame=24718 fps=188 q=-0.0 size=N/A time=00:17:10.94 bitrate=N/A speed=7.84x    frame=24818 fps=188 q=-0.0 size=N/A time=00:17:15.11 bitrate=N/A speed=7.84x    frame=24916 fps=188 q=-0.0 size=N/A time=00:17:19.20 bitrate=N/A speed=7.84x    frame=25012 fps=188 q=-0.0 size=N/A time=00:17:23.20 bitrate=N/A speed=7.84x    frame=25105 fps=188 q=-0.0 size=N/A time=00:17:27.08 bitrate=N/A speed=7.84x    frame=25209 fps=188 q=-0.0 size=N/A time=00:17:31.42 bitrate=N/A speed=7.84x    frame=25310 fps=188 q=-0.0 size=N/A time=00:17:35.63 bitrate=N/A speed=7.84x    frame=25400 fps=188 q=-0.0 size=N/A time=00:17:39.39 bitrate=N/A speed=7.84x    frame=25496 fps=188 q=-0.0 size=N/A time=00:17:43.39 bitrate=N/A speed=7.84x    frame=25601 fps=188 q=-0.0 size=N/A time=00:17:47.77 bitrate=N/A speed=7.84x    frame=25699 fps=188 q=-0.0 size=N/A time=00:17:51.86 bitrate=N/A speed=7.84x    frame=25788 fps=188 q=-0.0 size=N/A time=00:17:55.57 bitrate=N/A speed=7.84x    frame=25895 fps=188 q=-0.0 size=N/A time=00:18:00.03 bitrate=N/A speed=7.84x    frame=25998 fps=188 q=-0.0 size=N/A time=00:18:04.33 bitrate=N/A speed=7.84x    frame=26097 fps=188 q=-0.0 size=N/A time=00:18:08.46 bitrate=N/A speed=7.84x    frame=26186 fps=188 q=-0.0 size=N/A time=00:18:12.17 bitrate=N/A speed=7.84x    frame=26293 fps=188 q=-0.0 size=N/A time=00:18:16.63 bitrate=N/A speed=7.84x    frame=26393 fps=188 q=-0.0 size=N/A time=00:18:20.80 bitrate=N/A speed=7.84x    frame=26490 fps=188 q=-0.0 size=N/A time=00:18:24.85 bitrate=N/A speed=7.84x    frame=26576 fps=188 q=-0.0 size=N/A time=00:18:28.44 bitrate=N/A speed=7.84x    frame=26671 fps=188 q=-0.0 size=N/A time=00:18:32.40 bitrate=N/A speed=7.84x    frame=26769 fps=188 q=-0.0 size=N/A time=00:18:36.49 bitrate=N/A speed=7.84x    frame=26858 fps=188 q=-0.0 size=N/A time=00:18:40.20 bitrate=N/A speed=7.84x    frame=26945 fps=188 q=-0.0 size=N/A time=00:18:43.83 bitrate=N/A speed=7.84x    frame=27032 fps=188 q=-0.0 size=N/A time=00:18:47.45 bitrate=N/A speed=7.83x    frame=27126 fps=188 q=-0.0 size=N/A time=00:18:51.38 bitrate=N/A speed=7.83x    frame=27216 fps=188 q=-0.0 size=N/A time=00:18:55.13 bitrate=N/A speed=7.83x    frame=27310 fps=188 q=-0.0 size=N/A time=00:18:59.05 bitrate=N/A speed=7.83x    frame=27407 fps=188 q=-0.0 size=N/A time=00:19:03.10 bitrate=N/A speed=7.83x    frame=27503 fps=188 q=-0.0 size=N/A time=00:19:07.10 bitrate=N/A speed=7.83x    frame=27597 fps=188 q=-0.0 size=N/A time=00:19:11.02 bitrate=N/A speed=7.83x    frame=27678 fps=188 q=-0.0 size=N/A time=00:19:14.40 bitrate=N/A speed=7.82x    frame=27781 fps=188 q=-0.0 size=N/A time=00:19:18.69 bitrate=N/A speed=7.83x    frame=27873 fps=188 q=-0.0 size=N/A time=00:19:22.53 bitrate=N/A speed=7.83x    frame=27968 fps=188 q=-0.0 size=N/A time=00:19:26.49 bitrate=N/A speed=7.82x    frame=28062 fps=188 q=-0.0 size=N/A time=00:19:30.41 bitrate=N/A speed=7.82x    frame=28154 fps=188 q=-0.0 size=N/A time=00:19:34.25 bitrate=N/A speed=7.82x    frame=28248 fps=188 q=-0.0 size=N/A time=00:19:38.17 bitrate=N/A speed=7.82x    frame=28350 fps=188 q=-0.0 size=N/A time=00:19:42.43 bitrate=N/A speed=7.82x    frame=28446 fps=188 q=-0.0 size=N/A time=00:19:46.43 bitrate=N/A speed=7.82x    frame=28538 fps=188 q=-0.0 size=N/A time=00:19:50.27 bitrate=N/A speed=7.82x    frame=28631 fps=188 q=-0.0 size=N/A time=00:19:54.15 bitrate=N/A speed=7.82x    frame=28725 fps=187 q=-0.0 size=N/A time=00:19:58.07 bitrate=N/A speed=7.82x    frame=28813 fps=187 q=-0.0 size=N/A time=00:20:01.74 bitrate=N/A speed=7.82x    frame=28905 fps=187 q=-0.0 size=N/A time=00:20:05.57 bitrate=N/A speed=7.82x    frame=28996 fps=187 q=-0.0 size=N/A time=00:20:09.37 bitrate=N/A speed=7.82x    frame=29088 fps=187 q=-0.0 size=N/A time=00:20:13.21 bitrate=N/A speed=7.81x    frame=29187 fps=187 q=-0.0 size=N/A time=00:20:17.34 bitrate=N/A speed=7.81x    frame=29286 fps=187 q=-0.0 size=N/A time=00:20:21.47 bitrate=N/A speed=7.81x    frame=29377 fps=187 q=-0.0 size=N/A time=00:20:25.26 bitrate=N/A speed=7.81x    frame=29463 fps=187 q=-0.0 size=N/A time=00:20:28.85 bitrate=N/A speed=7.81x    frame=29554 fps=187 q=-0.0 size=N/A time=00:20:32.64 bitrate=N/A speed=7.81x    frame=29644 fps=187 q=-0.0 size=N/A time=00:20:36.40 bitrate=N/A speed=7.81x    frame=29739 fps=187 q=-0.0 size=N/A time=00:20:40.36 bitrate=N/A speed=7.81x    frame=29832 fps=187 q=-0.0 size=N/A time=00:20:44.24 bitrate=N/A speed= 7.8x    frame=29927 fps=187 q=-0.0 size=N/A time=00:20:48.20 bitrate=N/A speed= 7.8x    frame=30017 fps=187 q=-0.0 size=N/A time=00:20:51.95 bitrate=N/A speed= 7.8x    frame=30109 fps=187 q=-0.0 size=N/A time=00:20:55.79 bitrate=N/A speed= 7.8x    frame=30202 fps=187 q=-0.0 size=N/A time=00:20:59.67 bitrate=N/A speed= 7.8x    frame=30294 fps=187 q=-0.0 size=N/A time=00:21:03.51 bitrate=N/A speed= 7.8x    frame=30383 fps=187 q=-0.0 size=N/A time=00:21:07.22 bitrate=N/A speed= 7.8x    frame=30479 fps=187 q=-0.0 size=N/A time=00:21:11.22 bitrate=N/A speed= 7.8x    frame=30577 fps=187 q=-0.0 size=N/A time=00:21:15.31 bitrate=N/A speed= 7.8x    frame=30665 fps=187 q=-0.0 size=N/A time=00:21:18.98 bitrate=N/A speed= 7.8x    frame=30760 fps=187 q=-0.0 size=N/A time=00:21:22.94 bitrate=N/A speed= 7.8x    frame=30857 fps=187 q=-0.0 size=N/A time=00:21:26.99 bitrate=N/A speed= 7.8x    frame=30956 fps=187 q=-0.0 size=N/A time=00:21:31.12 bitrate=N/A speed= 7.8x    frame=31056 fps=187 q=-0.0 size=N/A time=00:21:35.29 bitrate=N/A speed= 7.8x    frame=31153 fps=187 q=-0.0 size=N/A time=00:21:39.33 bitrate=N/A speed= 7.8x    frame=31246 fps=187 q=-0.0 size=N/A time=00:21:43.21 bitrate=N/A speed= 7.8x    frame=31341 fps=187 q=-0.0 size=N/A time=00:21:47.18 bitrate=N/A speed= 7.8x    frame=31429 fps=187 q=-0.0 size=N/A time=00:21:50.85 bitrate=N/A speed=7.79x    frame=31521 fps=187 q=-0.0 size=N/A time=00:21:54.68 bitrate=N/A speed=7.79x    frame=31618 fps=187 q=-0.0 size=N/A time=00:21:58.73 bitrate=N/A speed=7.79x    frame=31708 fps=187 q=-0.0 size=N/A time=00:22:02.48 bitrate=N/A speed=7.79x    frame=31804 fps=187 q=-0.0 size=N/A time=00:22:06.49 bitrate=N/A speed=7.79x    frame=31898 fps=187 q=-0.0 size=N/A time=00:22:10.41 bitrate=N/A speed=7.79x    frame=31998 fps=187 q=-0.0 size=N/A time=00:22:14.58 bitrate=N/A speed=7.79x    frame=32091 fps=187 q=-0.0 size=N/A time=00:22:18.46 bitrate=N/A speed=7.79x    frame=32180 fps=187 q=-0.0 size=N/A time=00:22:22.17 bitrate=N/A speed=7.79x    frame=32272 fps=187 q=-0.0 size=N/A time=00:22:26.01 bitrate=N/A speed=7.79x    frame=32361 fps=187 q=-0.0 size=N/A time=00:22:29.72 bitrate=N/A speed=7.79x    frame=32453 fps=187 q=-0.0 size=N/A time=00:22:33.56 bitrate=N/A speed=7.79x    frame=32541 fps=187 q=-0.0 size=N/A time=00:22:37.23 bitrate=N/A speed=7.78x    frame=32637 fps=187 q=-0.0 size=N/A time=00:22:41.23 bitrate=N/A speed=7.78x    frame=32732 fps=187 q=-0.0 size=N/A time=00:22:45.19 bitrate=N/A speed=7.78x    frame=32830 fps=187 q=-0.0 size=N/A time=00:22:49.28 bitrate=N/A speed=7.78x    frame=32923 fps=187 q=-0.0 size=N/A time=00:22:53.16 bitrate=N/A speed=7.78x    frame=33009 fps=187 q=-0.0 size=N/A time=00:22:56.75 bitrate=N/A speed=7.78x    frame=33109 fps=187 q=-0.0 size=N/A time=00:23:00.92 bitrate=N/A speed=7.78x    frame=33201 fps=187 q=-0.0 size=N/A time=00:23:04.75 bitrate=N/A speed=7.78x    frame=33282 fps=186 q=-0.0 size=N/A time=00:23:08.13 bitrate=N/A speed=7.78x    frame=33380 fps=186 q=-0.0 size=N/A time=00:23:12.22 bitrate=N/A speed=7.78x    frame=33480 fps=186 q=-0.0 size=N/A time=00:23:16.39 bitrate=N/A speed=7.78x    frame=33576 fps=186 q=-0.0 size=N/A time=00:23:20.39 bitrate=N/A speed=7.78x    frame=33663 fps=186 q=-0.0 size=N/A time=00:23:24.02 bitrate=N/A speed=7.78x    frame=33768 fps=186 q=-0.0 size=N/A time=00:23:28.40 bitrate=N/A speed=7.78x    frame=33856 fps=186 q=-0.0 size=N/A time=00:23:32.07 bitrate=N/A speed=7.78x    frame=33949 fps=186 q=-0.0 size=N/A time=00:23:35.95 bitrate=N/A speed=7.78x    [Parsed_psnr_10 @ 000001f1f8d9a240] PSNR y:39.354808 u:48.063155 v:48.614012 average:40.849126 min:9.751003 max:101.111670
[out#0/null @ 000001f1f86dd980] video:14630KiB audio:266456KiB subtitle:0KiB other streams:0KiB global headers:0KiB muxing overhead: unknown
frame=34047 fps=186 q=-0.0 Lsize=N/A time=00:23:40.04 bitrate=N/A speed=7.78x    
